<?xml version="1.0" standalone="no"?>
<!DOCTYPE svg PUBLIC "-//W3C//DTD SVG 20010904//EN"
 "http://www.w3.org/TR/2001/REC-SVG-20010904/DTD/svg10.dtd">
<svg version="1.0" xmlns="http://www.w3.org/2000/svg"
 width="2100.000000pt" height="1500.000000pt" viewBox="0 0 2100.000000 1500.000000"
 preserveAspectRatio="xMidYMid meet">

<g transform="translate(0.000000,1500.000000) scale(0.100000,-0.100000)"
fill="#000000" stroke="none">
<path d="M8190 10135 c-499 -26 -611 -35 -637 -48 -68 -36 -63 46 -63 -1095 0
-1115 -3 -1058 52 -1109 17 -16 195 -78 578 -203 305 -99 564 -180 577 -180
12 0 35 11 50 24 l28 24 3 190 3 189 70 6 c132 11 159 46 159 204 l0 110 58
-20 c48 -18 82 -21 227 -21 142 0 182 4 246 21 87 24 196 77 251 121 l37 29
46 -43 c112 -108 294 -148 493 -109 89 18 238 87 296 138 l40 34 51 -52 c114
-117 298 -161 503 -119 77 15 197 65 253 105 34 24 34 24 58 -23 46 -85 169
-122 264 -80 28 12 84 57 140 111 l94 91 18 -40 c10 -22 40 -61 67 -86 154
-144 371 -120 536 61 53 58 172 278 172 318 0 28 -28 75 -51 88 -27 14 -80 14
-106 1 -11 -6 -45 -62 -76 -124 -61 -123 -116 -189 -182 -219 -49 -22 -75 -23
-120 -5 -61 26 -103 133 -74 187 7 13 66 98 131 188 149 203 158 218 158 259
0 49 -46 92 -97 92 -52 0 -72 -16 -140 -113 -125 -178 -513 -607 -549 -607
-19 0 -18 46 2 175 l16 104 72 47 c267 176 478 442 576 724 77 223 -4 397
-194 417 -148 15 -285 -108 -402 -362 -96 -211 -176 -457 -229 -706 -30 -144
-60 -206 -130 -275 -159 -155 -457 -191 -565 -68 -25 29 -30 43 -30 85 0 45 2
50 18 44 35 -15 189 -18 243 -5 222 53 349 226 298 407 -18 67 -89 136 -160
157 -217 65 -436 -87 -558 -385 -59 -144 -79 -178 -137 -235 -158 -155 -456
-191 -564 -68 -21 24 -30 45 -30 69 0 57 6 64 48 54 139 -32 319 12 417 102
125 116 141 294 34 401 -120 120 -317 102 -476 -45 -94 -87 -187 -251 -214
-378 -24 -111 -118 -204 -258 -254 l-36 -12 0 91 c0 103 -6 117 -100 256 -74
109 -73 165 5 205 56 29 120 9 120 -37 0 -9 14 -28 31 -42 42 -35 89 -35 130
2 26 23 31 35 31 71 -3 216 -318 298 -486 125 -61 -62 -81 -117 -81 -214 0
-96 8 -114 100 -250 59 -86 65 -114 38 -161 -50 -84 -187 -73 -251 20 -16 24
-17 88 -22 816 -3 435 -9 798 -13 807 -5 10 -24 27 -42 38 -40 25 -6 26 -765
-15z m-66 -301 c382 -124 546 -181 559 -196 16 -19 17 -83 17 -1039 0 -560 -3
-1019 -7 -1019 -3 0 -250 79 -547 176 -383 124 -546 181 -558 196 -17 19 -18
83 -18 1039 0 560 3 1019 7 1019 3 0 250 -79 547 -176z m4114 -156 c44 -44
-49 -280 -173 -443 -60 -78 -215 -236 -215 -219 0 6 23 78 50 160 118 349 268
572 338 502z m-1907 -708 c44 -24 7 -105 -65 -139 -49 -24 -139 -38 -180 -27
-23 6 -25 9 -15 28 20 37 92 109 128 128 40 21 102 26 132 10z m890 0 c44 -24
7 -105 -65 -139 -49 -24 -139 -38 -180 -27 -23 6 -25 9 -15 28 20 37 92 109
128 128 40 21 102 26 132 10z"/>
<path d="M8418 8631 c-29 -26 -33 -35 -33 -81 0 -46 4 -55 33 -81 22 -20 43
-29 67 -29 24 0 45 9 67 29 29 26 33 35 33 81 0 46 -4 55 -33 81 -22 20 -43
29 -67 29 -24 0 -45 -9 -67 -29z"/>
</g>
</svg>
